<svg width="80" height="40" viewBox="0 0 80 40" fill="none" xmlns="http://www.w3.org/2000/svg">
<path d="M25.16 16.16C25.48 16.6133 25.3866 17.5467 24.88 18.96C24.7466 19.36 24.6266 19.6933 24.52 19.96C24.4133 20.2267 24.2533 20.56 24.04 20.96C23.6666 21.76 23.1866 22.5733 22.6 23.4C22.0133 24.2 21.3466 24.9333 20.6 25.6C19.88 26.2667 19.08 26.8133 18.2 27.24C17.3466 27.6667 16.44 27.88 15.48 27.88C14.68 27.88 13.9733 27.6933 13.36 27.32C12.7466 26.9467 12.2133 26.4667 11.76 25.88C11.3333 25.2933 10.9866 24.64 10.72 23.92C10.4533 23.1733 10.2933 22.4533 10.24 21.76C10.16 20.8 10.2133 19.7733 10.4 18.68C10.5866 17.5867 10.8933 16.4933 11.32 15.4C11.8 14.2 12.44 13.0667 13.24 12C14.04 10.9067 14.9733 10.0133 16.04 9.32C16.6266 9 17.2133 8.73333 17.8 8.52C18.3866 8.30666 19.0266 8.2 19.72 8.2C20.0666 8.2 20.3866 8.24 20.68 8.32C21 8.37333 21.2666 8.48 21.48 8.64C21.9333 8.90666 22.28 9.26666 22.52 9.72C22.8133 10.28 22.9466 10.9733 22.92 11.8C22.92 12.6 22.88 13.32 22.5866 13.88C22.48 14.04 22.3466 14.2133 22.1866 14.4C22.0533 14.56 21.9333 14.6667 21.8266 14.72C21.5066 14.8533 21.2533 14.7867 21.0666 14.52C20.9333 14.3867 20.8533 14.24 20.8266 14.08C20.8 13.92 20.68 13.6133 20.68 13.24C20.6533 12.8667 20.6266 12.6 20.6 12.44C20.5733 12.28 20.52 12.16 20.44 12.08C20.36 12 20.2666 11.96 20.16 11.96C19.84 11.9867 19.5066 12.1467 19.16 12.44C18.8133 12.7067 18.48 13.0267 18.16 13.4C17.8666 13.7467 17.5866 14.12 17.32 14.52C17.08 14.8933 16.8933 15.2 16.76 15.44C16.1733 16.4533 15.7333 17.4267 15.44 18.36C15.1466 19.2933 15.0266 20.1467 15.08 20.92C15.08 21.3733 15.1733 21.84 15.36 22.32C15.5466 22.7733 15.9066 23.0267 16.44 23.08C16.6 23.08 16.7466 23.0667 16.88 23.04C17.0133 23.0133 17.1866 22.9467 17.4 22.84C17.9866 22.5467 18.6133 22.08 19.28 21.44C19.9466 20.7733 20.84 19.7867 21.96 18.48C22.28 18.1067 22.5333 17.8133 22.72 17.6C22.9066 17.3867 23.0533 17.2133 23.16 17.08C23.2933 16.9467 23.4 16.84 23.48 16.76C23.56 16.68 23.6533 16.5867 23.76 16.48C24.2133 16.08 24.5466 15.88 24.76 15.88C24.92 15.88 25.0533 15.9733 25.16 16.16Z" fill="url(#paint0_linear_5_54)"/>
<path d="M29.1838 37C26.9971 38.0933 24.0638 38.64 20.3838 38.64C19.7704 38.64 19.2771 38.6267 18.9038 38.6C18.5571 38.5733 18.1171 38.5333 17.5838 38.48C16.1171 38.2933 14.7171 37.9867 13.3838 37.56C12.0771 37.1333 10.7171 36.5467 9.30376 35.8C8.39709 35.3467 7.61042 34.9067 6.94376 34.48C6.30376 34.0533 5.65042 33.5733 4.98375 33.04C4.29042 32.48 3.59709 31.8267 2.90376 31.08C2.21042 30.36 1.63709 29.6667 1.18376 29C0.730422 28.3333 0.490421 27.6533 0.463755 26.96L0.463755 26.48C0.623755 25.8133 0.850422 25.3067 1.14376 24.96C1.78376 24.32 2.61042 24.2667 3.62375 24.8C3.86375 24.9333 4.10376 25.08 4.34376 25.24C4.58376 25.4 4.83709 25.5867 5.10376 25.8C5.39709 26.04 5.71709 26.3333 6.06376 26.68C6.43709 27.0267 6.86376 27.44 7.34376 27.92C8.11709 28.6933 8.73042 29.28 9.18376 29.68C9.66376 30.1067 10.1571 30.5333 10.6638 30.96C12.2638 32.24 13.8771 33.2267 15.5038 33.92C16.3571 34.2933 17.3304 34.6 18.4238 34.84C19.5438 35.1067 20.6238 35.28 21.6638 35.36C21.8238 35.36 22.0371 35.36 22.3038 35.36C22.5971 35.3867 22.8904 35.4 23.1838 35.4C23.4771 35.4 23.7571 35.3867 24.0238 35.36C24.2904 35.36 24.4904 35.36 24.6238 35.36C25.2371 35.3067 25.8238 35.2133 26.3838 35.08C26.9438 34.9467 27.4904 34.7733 28.0238 34.56C28.1838 34.5067 28.3038 34.4533 28.3838 34.4C28.4904 34.3733 28.6104 34.3333 28.7438 34.28C28.8771 34.2267 29.0371 34.16 29.2238 34.08C29.4104 34 29.6638 33.88 29.9838 33.72C30.4638 33.5067 30.7571 33.3733 30.8638 33.32C30.9971 33.2667 31.1304 33.2267 31.2638 33.2C31.5304 33.2 31.7304 33.2667 31.8638 33.4C32.1304 33.6933 32.1171 34.1467 31.8238 34.76C31.6904 35.0267 31.4371 35.3467 31.0638 35.72C30.7704 36.0133 30.4904 36.24 30.2238 36.4C29.9571 36.5867 29.6104 36.7867 29.1838 37Z" fill="url(#paint1_linear_5_54)"/>
<path d="M78.9121 16.08C79.2855 16.2133 80.08 16.3733 80 16.72C79.9733 16.9333 79.1521 17.2533 78.8321 17.52C78.5388 17.7867 77.9121 18.24 76.9521 18.88C76.1788 19.3867 75.6188 19.7867 75.2721 20.08C74.9255 20.3467 74.6188 20.6267 74.3521 20.92C74.1121 21.1867 73.8988 21.48 73.7121 21.8C73.5255 22.12 73.3255 22.52 73.1121 23C72.9255 23.4533 72.7255 24.0267 72.5121 24.72C72.2988 25.3867 72.0588 26.2 71.7921 27.16C71.4988 28.2 71.1255 29.36 70.6721 30.64C70.2188 31.92 69.6588 33.16 68.9921 34.36C68.3521 35.56 67.5655 36.6133 66.6321 37.52C65.7255 38.4267 64.6721 39.0133 63.4721 39.28C63.2055 39.3333 62.9655 39.36 62.7521 39.36C62.0588 39.36 61.4721 39.16 60.9921 38.76C60.5121 38.3867 60.1655 37.8667 59.9521 37.2C59.7388 36.5333 59.6321 35.76 59.6321 34.88C59.6588 34 59.8188 33.12 60.1121 32.24C60.3788 31.44 60.7388 30.6267 61.1921 29.8C61.6721 29 62.2588 28.1333 62.9521 27.2C63.0588 27.0667 63.2455 26.8267 63.5121 26.48C63.8055 26.1333 64.1121 25.76 64.4321 25.36C64.7521 24.96 65.0588 24.5733 65.3521 24.2C65.6455 23.8267 65.8588 23.56 65.9921 23.4C66.4721 22.8133 66.8988 22.28 67.2721 21.8C67.6455 21.32 67.9655 20.8667 68.2321 20.44C68.5255 20.0133 68.7655 19.6133 68.9521 19.24C69.1655 18.84 69.3655 18.4267 69.5521 18C69.6855 17.7067 69.8188 17.3733 69.9521 17C70.0855 16.6267 70.2055 16.2533 70.3121 15.88C70.4188 15.5067 70.5121 15.1467 70.5921 14.8C70.6721 14.4267 70.7255 14.1067 70.7521 13.84C70.8055 13.6 70.7655 13.48 70.6321 13.48C70.4988 13.48 70.4321 13.5333 70.4321 13.64C70.4321 13.64 70.3921 13.7333 70.3121 13.92C70.2321 14.08 70.1388 14.28 70.0321 14.52C69.9255 14.76 69.8055 15.0267 69.6721 15.32C69.5388 15.6133 69.4055 15.88 69.2721 16.12C69.0321 16.5733 68.7255 17.16 68.3521 17.88C67.9788 18.5733 67.5521 19.32 67.0721 20.12C66.5921 20.8933 66.0588 21.68 65.4721 22.48C64.9121 23.2533 64.3255 23.96 63.7121 24.6C63.1255 25.2133 62.5121 25.72 61.8721 26.12C61.2588 26.4933 60.6455 26.68 60.0321 26.68C59.4988 26.68 59.0055 26.48 58.5521 26.08C57.8321 25.4667 57.4055 24.4133 57.2721 22.92C57.1121 21.4 57.2588 19.6267 57.7122 17.6C57.9788 16.5067 58.2721 15.4933 58.5921 14.56C58.9121 13.6267 59.3521 12.5733 59.9121 11.4C60.4721 10.2 60.9255 9.33333 61.2721 8.8C61.6188 8.24 61.9521 7.89333 62.2721 7.76C62.4321 7.68 62.6321 7.64 62.8721 7.64C63.1388 7.64 63.4188 7.70667 63.7121 7.84C64.0055 7.94667 64.2588 8.10667 64.4721 8.32C64.6321 8.48 64.7388 8.62667 64.7921 8.76C64.8455 8.89333 64.8588 9.08 64.8321 9.32C64.8321 9.58667 64.7788 9.89333 64.6721 10.24C64.5655 10.56 64.3388 11.12 63.9921 11.92C62.4988 15.44 61.6721 17.9867 61.5121 19.56C61.4588 19.88 61.4455 20.16 61.4721 20.4C61.5255 20.6133 61.6055 20.72 61.7121 20.72C61.9788 20.72 62.3655 20.4133 62.8721 19.8C63.3788 19.16 63.8988 18.44 64.4321 17.64C64.9655 16.84 65.4455 16.0533 65.8721 15.28C66.3255 14.5067 66.6321 13.96 66.7921 13.64C66.8988 13.4267 66.9921 13.24 67.0721 13.08C67.1788 12.8933 67.2855 12.6933 67.3921 12.48C67.4988 12.24 67.6188 11.96 67.7521 11.64C67.9121 11.32 68.1121 10.92 68.3521 10.44C68.6455 9.82667 68.8455 9.41333 68.9521 9.2C69.0588 8.98667 69.1788 8.77333 69.3121 8.56C69.5255 8.24 69.7655 8.01333 70.0321 7.88C70.2988 7.74667 70.6588 7.68 71.1121 7.68C71.6455 7.68 72.2188 7.78667 72.8321 8C73.4455 8.21333 73.8721 8.58667 74.1121 9.12C74.2455 9.33333 74.3255 9.54667 74.3521 9.76C74.3788 9.94666 74.3921 10.3067 74.3921 10.84C74.3921 11.08 74.3921 11.3067 74.3921 11.52C74.3921 11.7067 74.3788 11.9067 74.3521 12.12C74.3255 12.3333 74.2855 12.56 74.2321 12.8C74.2055 13.04 74.1655 13.3333 74.1121 13.68C74.0321 14.1067 73.9521 14.6133 73.8721 15.2C73.8188 15.76 73.7655 16.2933 73.7121 16.8C73.6855 17.1733 73.6855 17.4267 73.7121 17.56C73.7655 17.8 73.8188 17.92 73.8721 17.92C73.9255 17.92 74.0721 17.8267 74.3121 17.64C74.8455 17.2667 75.3921 16.96 75.9521 16.72C76.5121 16.4533 77.0188 16.2533 77.4721 16.12C77.7121 16.0667 77.9788 16.04 78.2721 16.04C78.5655 16.0133 78.7788 16.0267 78.9121 16.08ZM66.2721 29.72C66.3788 29.5333 66.5121 29.28 66.6721 28.96C66.8321 28.64 66.9788 28.32 67.1121 28C67.2721 27.68 67.4055 27.4 67.5121 27.16C67.6188 26.92 67.6721 26.7867 67.6721 26.76C67.6721 26.76 67.5788 26.84 67.3921 27C67.2321 27.16 67.0321 27.36 66.7921 27.6C66.5788 27.8133 66.3655 28.0267 66.1521 28.24C65.9388 28.4533 65.7921 28.6133 65.7121 28.72C65.0455 29.4933 64.5521 30.2 64.2321 30.84C63.9121 31.5067 63.7788 32.0267 63.8321 32.4C63.8588 32.5333 63.9921 32.52 64.2321 32.36C64.4988 32.1467 64.8188 31.7867 65.1921 31.28C65.5655 30.8 65.9255 30.28 66.2721 29.72Z" fill="url(#paint2_linear_5_54)"/>
<path d="M60.004 17.12C60.004 17.5733 59.8973 18.16 59.684 18.88C59.4707 19.6 59.1773 20.3733 58.804 21.2C58.4307 22 58.004 22.8267 57.524 23.68C57.044 24.5067 56.524 25.28 55.964 26C55.4307 26.6933 54.884 27.2933 54.324 27.8C53.764 28.28 53.2307 28.5733 52.724 28.68C52.5907 28.7333 52.3907 28.76 52.124 28.76C51.884 28.7867 51.6974 28.8 51.564 28.8C50.3907 28.6133 49.5374 28.12 49.004 27.32C48.4707 26.52 48.1374 25.6 48.004 24.56C47.9774 24.4267 47.964 24.2 47.964 23.88C47.964 23.56 47.964 23.2267 47.964 22.88C47.964 22.5067 47.9774 22.16 48.004 21.84C48.004 21.4933 48.0174 21.2267 48.044 21.04C48.204 19.4667 48.524 17.7467 49.004 15.88C49.484 14.0133 50.1507 11.9067 51.004 9.56001C51.5907 7.98667 52.1907 6.52001 52.804 5.16001C53.4174 3.80001 53.9507 1.80001 54.404 1.16001C54.644 0.786673 55.0307 0.600006 55.564 0.600006C56.1507 0.600006 56.604 0.81334 56.924 1.24001C57.244 1.66667 57.404 2.14667 57.404 2.68001C57.404 3.02667 57.3507 4.45334 57.244 4.96001C57.1374 5.44001 56.924 6.24001 56.604 7.36001C56.204 8.69334 55.8574 9.92001 55.564 11.04C55.2707 12.16 55.0174 13.1867 54.804 14.12C54.5107 15.32 54.2174 16.52 53.924 17.72C53.6574 18.92 53.4174 20.1333 53.204 21.36C53.1507 21.7333 53.124 22 53.124 22.16C53.124 22.2933 53.1907 22.36 53.324 22.36C53.484 22.36 53.7774 22.1467 54.204 21.72C54.6307 21.2933 55.0707 20.8133 55.524 20.28C55.9774 19.7467 56.3907 19.24 56.764 18.76C57.164 18.28 57.4174 17.9733 57.524 17.84C58.1374 17.0667 58.5774 16.56 58.844 16.32C59.1107 16.0533 59.3507 15.96 59.564 16.04C59.7774 16.1467 59.8974 16.3067 59.924 16.52C59.9774 16.7067 60.004 16.9067 60.004 17.12Z" fill="url(#paint3_linear_5_54)"/>
<path d="M51.1759 17.12C51.1759 17.5733 51.0692 18.16 50.8559 18.88C50.6426 19.6 50.3492 20.3733 49.9759 21.2C49.6026 22 49.1759 22.8267 48.6959 23.68C48.2159 24.5067 47.6959 25.28 47.1359 26C46.6026 26.6933 46.0559 27.2933 45.4959 27.8C44.9359 28.28 44.4026 28.5733 43.8959 28.68C43.7626 28.7333 43.5626 28.76 43.2959 28.76C43.0559 28.7867 42.8692 28.8 42.7359 28.8C41.5626 28.6133 40.7092 28.12 40.1759 27.32C39.6426 26.52 39.3092 25.6 39.1759 24.56C39.1492 24.4267 39.1359 24.2 39.1359 23.88C39.1359 23.56 39.1359 23.2267 39.1359 22.88C39.1359 22.5067 39.1492 22.16 39.1759 21.84C39.1759 21.4933 39.1892 21.2267 39.2159 21.04C39.3759 19.4667 39.6959 17.7467 40.1759 15.88C40.6559 14.0133 41.3226 11.9067 42.1759 9.56C42.5626 8.32667 43.1626 6.86 43.7759 5.5C44.3892 4.14 44.9226 3.14 45.3759 2.5C45.6159 2.12667 46.0026 1.94 46.5359 1.94C47.1226 1.94 47.5759 2.15333 47.8959 2.58C48.2159 3.00667 48.3759 3.48667 48.3759 4.02C48.3759 4.36667 48.3226 4.79333 48.2159 5.3C48.1092 5.78 47.8959 6.58 47.5759 7.7C47.1759 9.03333 47.0292 9.92 46.7359 11.04C46.4426 12.16 46.1892 13.1867 45.9759 14.12C45.6826 15.32 45.3892 16.52 45.0959 17.72C44.8292 18.92 44.5892 20.1333 44.3759 21.36C44.3226 21.7333 44.2959 22 44.2959 22.16C44.2959 22.2933 44.3626 22.36 44.4959 22.36C44.6559 22.36 44.9492 22.1467 45.3759 21.72C45.8026 21.2933 46.2426 20.8133 46.6959 20.28C47.1492 19.7467 47.5626 19.24 47.9359 18.76C48.3359 18.28 48.5892 17.9733 48.6959 17.84C49.3092 17.0667 49.7492 16.56 50.0159 16.32C50.2826 16.0533 50.5226 15.96 50.7359 16.04C50.9492 16.1467 51.0692 16.3067 51.0959 16.52C51.1492 16.7067 51.1759 16.9067 51.1759 17.12Z" fill="url(#paint4_linear_5_54)"/>
<path d="M42.1437 16.04C42.2771 16.1733 42.3304 16.44 42.3037 16.84C42.3037 17.1867 42.1971 17.68 41.9837 18.32C41.7971 18.9333 41.5304 19.6133 41.1837 20.36C40.8637 21.08 40.4904 21.8267 40.0637 22.6C39.6637 23.3467 39.237 24.0533 38.7837 24.72C38.3304 25.3867 37.8637 25.96 37.3837 26.44C36.9304 26.92 36.5037 27.2267 36.1037 27.36C35.9704 27.4133 35.8637 27.44 35.7837 27.44C35.7037 27.44 35.597 27.44 35.4637 27.44C35.3037 27.44 35.1837 27.44 35.1037 27.44C35.0504 27.4133 34.9704 27.3733 34.8637 27.32C34.5437 27.1867 34.277 26.96 34.0637 26.64C33.877 26.32 33.7304 25.9733 33.6237 25.6C33.517 25.2267 33.437 24.84 33.3837 24.44C33.357 24.04 33.3304 23.68 33.3037 23.36C33.277 23.0133 33.2504 22.72 33.2237 22.48C33.2237 22.24 33.2237 22.0533 33.2237 21.92C33.197 21.7333 33.1837 21.5867 33.1837 21.48C33.1304 21.48 33.0504 21.5467 32.9437 21.68C32.837 21.7867 32.637 22.0267 32.3437 22.4C31.7837 23.12 31.3304 23.68 30.9837 24.08C30.6637 24.48 30.397 24.8 30.1837 25.04C29.997 25.28 29.837 25.48 29.7037 25.64C29.5704 25.7733 29.4104 25.9333 29.2237 26.12C28.237 27.0267 27.357 27.5867 26.5837 27.8C26.4504 27.8533 26.2237 27.8933 25.9037 27.92C25.5837 27.92 25.357 27.8933 25.2237 27.84C23.837 27.5467 22.9837 26.4533 22.6637 24.56C22.6104 24.1867 22.5837 23.7733 22.5837 23.32C22.557 22.84 22.557 22.3467 22.5837 21.84C22.6104 21.3333 22.6637 20.8267 22.7437 20.32C22.797 19.7867 22.877 19.3067 22.9837 18.88C23.277 17.7333 23.717 16.5333 24.3037 15.28C24.8904 14 25.6104 12.8267 26.4637 11.76C27.3437 10.6933 28.3437 9.81334 29.4637 9.12C30.5837 8.42667 31.8237 8.08 33.1837 8.08C33.9837 8.08 34.7704 8.26667 35.5437 8.64C36.3437 9.01334 36.9304 9.57334 37.3037 10.32C37.3837 10.5067 37.4237 10.6533 37.4237 10.76C37.4504 10.84 37.4637 10.8933 37.4637 10.92C37.4904 10.9467 37.5704 11.0267 37.7037 11.16C37.917 11.3467 38.077 11.52 38.1837 11.68C38.2904 11.84 38.3704 12.0533 38.4237 12.32C38.477 12.5867 38.437 12.9467 38.3037 13.4C38.1704 13.8533 37.9037 14.5867 37.5037 15.6C37.0237 16.8267 36.6904 17.8133 36.5037 18.56C36.317 19.3067 36.2637 19.9067 36.3437 20.36C36.3704 20.7067 36.517 20.88 36.7837 20.88C37.0504 20.88 37.357 20.68 37.7037 20.28C37.837 20.1467 38.0104 19.96 38.2237 19.72C38.437 19.4533 38.7704 19.0133 39.2237 18.4C39.3304 18.2667 39.477 18.0933 39.6637 17.88C39.8504 17.6667 40.0504 17.44 40.2637 17.2C40.5037 16.96 40.7171 16.7467 40.9037 16.56C41.1171 16.3467 41.2904 16.2 41.4237 16.12C41.6371 16.04 41.7971 16 41.9037 16C42.0371 15.9733 42.1171 15.9867 42.1437 16.04ZM34.4237 12.44L34.3037 12.28C34.117 12.0133 33.8904 11.88 33.6237 11.88C33.2237 11.8533 32.717 12.0533 32.1037 12.48C31.5437 12.8533 31.0104 13.3733 30.5037 14.04C30.0237 14.7067 29.5837 15.4267 29.1837 16.2C28.8104 16.9733 28.477 17.7467 28.1837 18.52C27.917 19.2933 27.7304 19.9867 27.6237 20.6C27.597 20.8133 27.5837 21.0533 27.5837 21.32C27.5837 21.5867 27.6104 21.7467 27.6637 21.8C27.717 21.88 27.797 21.8933 27.9037 21.84C28.2237 21.7333 28.6237 21.44 29.1037 20.96C29.5837 20.4533 30.0637 19.8933 30.5437 19.28C31.0237 18.6667 31.4637 18.0533 31.8637 17.44C32.2637 16.8267 32.557 16.36 32.7437 16.04C32.957 15.72 33.1837 15.28 33.4237 14.72C33.6904 14.16 33.917 13.6533 34.1037 13.2L34.4237 12.44Z" fill="url(#paint5_linear_5_54)"/>
<defs>
<linearGradient id="paint0_linear_5_54" x1="78.4635" y1="0.600001" x2="2.00581" y2="39.36" gradientUnits="userSpaceOnUse">
<stop offset="0.146314" stop-color="#4872ED"/>
<stop offset="1" stop-color="#7B35DF"/>
</linearGradient>
<linearGradient id="paint1_linear_5_54" x1="78.4635" y1="0.600001" x2="2.00581" y2="39.36" gradientUnits="userSpaceOnUse">
<stop offset="0.146314" stop-color="#4872ED"/>
<stop offset="1" stop-color="#7B35DF"/>
</linearGradient>
<linearGradient id="paint2_linear_5_54" x1="78.4635" y1="0.600001" x2="2.00581" y2="39.36" gradientUnits="userSpaceOnUse">
<stop offset="0.146314" stop-color="#4872ED"/>
<stop offset="1" stop-color="#7B35DF"/>
</linearGradient>
<linearGradient id="paint3_linear_5_54" x1="78.4635" y1="0.600001" x2="2.00581" y2="39.36" gradientUnits="userSpaceOnUse">
<stop offset="0.146314" stop-color="#4872ED"/>
<stop offset="1" stop-color="#7B35DF"/>
</linearGradient>
<linearGradient id="paint4_linear_5_54" x1="78.4635" y1="0.600001" x2="2.00581" y2="39.36" gradientUnits="userSpaceOnUse">
<stop offset="0.146314" stop-color="#4872ED"/>
<stop offset="1" stop-color="#7B35DF"/>
</linearGradient>
<linearGradient id="paint5_linear_5_54" x1="78.4635" y1="0.600001" x2="2.00581" y2="39.36" gradientUnits="userSpaceOnUse">
<stop offset="0.146314" stop-color="#4872ED"/>
<stop offset="1" stop-color="#7B35DF"/>
</linearGradient>
</defs>
</svg>
