<svg width="95" height="27" viewBox="0 0 95 27" fill="none" xmlns="http://www.w3.org/2000/svg">
<path d="M92.8772 10.8826C94.8502 12.0459 94.8502 14.9541 92.8772 16.1174L75.12 26.5869C73.147 27.7502 70.6807 26.2961 70.6807 23.9695L70.6807 3.03046C70.6807 0.703902 73.147 -0.750199 75.12 0.413081L92.8772 10.8826Z" fill="#2DD4BF"/>
<path d="M70.6807 20.5181V17.966L76.4273 10.5062H70.5652V7.56158H80.5453V10.1136L74.822 17.5734H80.778V20.5181H70.6807Z" fill="#1E293B"/>
<path d="M64.0651 15.6714V2.52301H67.1574V16.0073C67.1574 16.9991 67.6354 17.5509 68.5915 17.6629V20.5181C65.5739 20.5181 64.0651 18.9026 64.0651 15.6714Z" fill="#1E293B"/>
<path d="M50.4863 25.1968V7.56158H57.2045C59.6893 7.56158 60.9317 8.86969 60.9317 11.4859V16.4276C60.9317 19.0438 59.6893 20.3519 57.2045 20.3519H53.6613V25.1968H50.4863ZM53.6613 17.445H57.0204C57.5112 17.445 57.7567 17.1867 57.7567 16.6699V11.2437C57.7567 10.7269 57.5112 10.4685 57.0204 10.4685H53.6613V17.445Z" fill="#1E293B"/>
<path d="M36.559 20.5181V2.52301H39.8399V7.67836H43.5012C46.0688 7.67836 47.3526 8.99152 47.3526 11.6178V20.5181H44.0718V11.3747C44.0718 10.8559 43.8182 10.5965 43.311 10.5965H39.8399V20.5181H36.559Z" fill="#1E293B"/>
<path d="M24.3726 19.4138V17.5734H29.7646C30.296 17.5734 30.5617 17.2626 30.5617 16.6409C30.5617 16.0029 30.3429 15.643 29.9053 15.5612L27.3734 15.1195C25.3729 14.7596 24.3726 13.549 24.3726 11.4878C24.3726 8.87032 25.6386 7.56158 28.1705 7.56158H31.8042L33.2109 8.66583V10.5062H28.358C27.8266 10.5062 27.5609 10.8171 27.5609 11.4387C27.5609 12.0931 27.8032 12.4612 28.2877 12.543L30.7962 12.9847C32.7811 13.3282 33.7735 14.5224 33.7735 16.5673C33.7735 19.2011 32.4997 20.5181 29.9522 20.5181H25.7792L24.3726 19.4138Z" fill="#1E293B"/>
<path d="M15.2245 20.5181C12.7347 20.5181 11.4899 19.2175 11.4899 16.6164C11.4899 14.0153 12.7347 12.7147 15.2245 12.7147H18.4058V11.2915C18.4058 10.768 18.1599 10.5062 17.6681 10.5062H12.7808V8.66583L14.164 7.56158H17.8525C20.3422 7.56158 21.5871 8.88668 21.5871 11.5369V20.5181H15.2245ZM14.6712 16.7882C14.6712 17.3117 14.9171 17.5734 15.4089 17.5734H18.4058V15.3158H15.4089C14.9171 15.3158 14.6712 15.5776 14.6712 16.1011V16.7882Z" fill="#1E293B"/>
<path d="M0 16.5428V11.5369C0 8.88668 1.24423 7.56158 3.7327 7.56158H8.0184L9.40088 8.66583V10.5062H3.91703C3.42548 10.5062 3.17971 10.768 3.17971 11.2915V16.7882C3.17971 17.3117 3.42548 17.5734 3.91703 17.5734H9.40088V19.4138L8.0184 20.5181H3.7327C1.24423 20.5181 0 19.193 0 16.5428Z" fill="#1E293B"/>
</svg>
