<svg width="150" height="32" viewBox="0 0 150 32" fill="none" xmlns="http://www.w3.org/2000/svg">
<path d="M146.872 22.6051H121" stroke="black" stroke-width="2" stroke-linecap="round" stroke-linejoin="round"/>
<path d="M132.553 7.2406C133.265 6.00827 134.855 5.58212 136.087 6.29361L147.29 12.7617C147.885 13.1048 148.318 13.6698 148.496 14.3326C148.673 14.9954 148.581 15.7016 148.237 16.2959L144 22.5L124 22.5L132.553 7.2406Z" stroke="black" stroke-width="2" stroke-linecap="round" stroke-linejoin="round"/>
<path d="M139.725 18.898C140.74 18.6371 141.836 18.255 142.411 17.2587C142.778 16.624 142.877 15.8698 142.687 15.1619C142.498 14.4541 142.035 13.8506 141.4 13.4841C140.634 13.042 139.969 12.9481 138.94 13.2239C138.664 12.1945 138.25 11.6655 137.484 11.2234C136.85 10.857 136.095 10.7577 135.388 10.9474C134.68 11.137 134.076 11.6001 133.71 12.2348C133.132 13.2355 133.345 14.3736 133.633 15.3813L134.921 20.1852L139.725 18.898Z" fill="#D64C41"/>
<path d="M0.936 23V5.24H4.176V10.64C5.136 9.416 6.576 8.672 8.376 8.672C11.904 8.672 13.944 10.856 13.944 14.672V23H10.632V15.032C10.632 12.824 9.576 11.48 7.464 11.48C5.64 11.48 4.2 12.848 4.2 15.296V23H0.936ZM22.7554 23.288C18.3394 23.288 15.3394 20.072 15.3394 16.016C15.3394 11.912 18.5314 8.672 22.6354 8.672C26.8114 8.672 29.8594 11.744 29.8594 15.896V17.12H18.4354C18.8914 19.112 20.4514 20.432 22.7554 20.432C24.5794 20.432 25.9714 19.472 26.6434 17.96L29.3074 19.496C28.0834 21.776 25.9234 23.288 22.7554 23.288ZM22.6354 11.528C20.6914 11.528 19.1794 12.68 18.6034 14.408H26.5714C26.0914 12.512 24.6514 11.528 22.6354 11.528ZM37.767 23.288C34.383 23.288 30.855 20.6 30.855 15.992C30.855 11.336 34.263 8.672 37.815 8.672C39.663 8.672 41.295 9.416 42.327 10.64V8.96H45.567V23H42.327V21.176C41.295 22.496 39.615 23.288 37.767 23.288ZM38.295 20.312C40.719 20.312 42.495 18.368 42.495 15.944C42.495 13.544 40.719 11.624 38.295 11.624C35.895 11.624 34.047 13.52 34.047 15.944C34.047 18.392 35.895 20.312 38.295 20.312ZM47.5298 23V8.96H50.7458V11.048C51.3938 9.656 52.5938 8.96 54.3458 8.96C55.3778 8.96 56.1698 9.2 56.8178 9.56L55.5938 12.632C55.1138 12.32 54.5858 12.08 53.6497 12.08C51.7538 12.08 50.7698 13.088 50.7698 15.512V23H47.5298ZM57.3617 11.864V8.96H59.7617V6.824L63.0257 4.592V8.96H65.8817V11.864H63.0257V17.12C63.0257 19.568 63.3857 19.952 65.8817 19.952V23H65.4257C61.0817 23 59.7617 21.608 59.7617 17.144V11.864H57.3617Z" fill="#D64C41"/>
<path d="M72.0836 23L66.7316 8.96H70.1156L73.7396 18.848L77.2916 8.96H80.6276L75.3476 23H72.0836ZM87.5567 23.288C83.5007 23.288 80.2847 20.024 80.2847 15.992C80.2847 11.888 83.5007 8.672 87.5567 8.672C91.5887 8.672 94.8287 11.888 94.8287 15.992C94.8287 20.024 91.5887 23.288 87.5567 23.288ZM87.5567 20.24C89.8607 20.24 91.6367 18.32 91.6367 15.992C91.6367 13.616 89.8607 11.72 87.5567 11.72C85.2287 11.72 83.4767 13.616 83.4767 15.992C83.4767 18.32 85.2287 20.24 87.5567 20.24ZM95.0258 11.864V8.96H97.4258V6.824L100.69 4.592V8.96H103.546V11.864H100.69V17.12C100.69 19.568 101.05 19.952 103.546 19.952V23H103.09C98.7458 23 97.4258 21.608 97.4258 17.144V11.864H95.0258ZM111.607 23.288C107.191 23.288 104.191 20.072 104.191 16.016C104.191 11.912 107.383 8.672 111.487 8.672C115.663 8.672 118.711 11.744 118.711 15.896V17.12H107.287C107.743 19.112 109.303 20.432 111.607 20.432C113.431 20.432 114.823 19.472 115.495 17.96L118.159 19.496C116.935 21.776 114.775 23.288 111.607 23.288ZM111.487 11.528C109.543 11.528 108.031 12.68 107.455 14.408H115.423C114.943 12.512 113.503 11.528 111.487 11.528Z" fill="black"/>
</svg>
