<?xml version="1.0" encoding="UTF-8"?><svg id="a" xmlns="http://www.w3.org/2000/svg" viewBox="0 0 594.57 102.63"><defs><style>.b,.c{fill:#000000;}.c{fill-rule:evenodd;}</style></defs><path class="c" d="M543.25,0c-3.42,0-6.76,.34-9.99,.97,23.56,4.65,41.32,25.42,41.32,50.34s-17.77,45.69-41.32,50.34c3.23,.64,6.57,.97,9.99,.97,28.34,0,51.32-22.97,51.32-51.32S571.59,0,543.25,0Z"/><path class="c" d="M517.25,6.19c16.27,8.49,27.37,25.51,27.37,45.13s-11.11,36.64-27.37,45.13c22.39-2.84,39.71-21.96,39.71-45.13s-17.31-42.29-39.71-45.13Z"/><path class="c" d="M19.98,51.32C19.98,26.39,37.75,5.62,61.31,.97c-3.23-.64-6.57-.97-9.99-.97C22.97,0,0,22.97,0,51.32s22.97,51.32,51.32,51.32c3.42,0,6.76-.34,9.99-.97-23.56-4.65-41.32-25.42-41.32-50.34Z"/><path class="c" d="M55.32,51.32c0-22.09,15.75-40.51,36.64-44.63-2.86-.57-5.83-.86-8.86-.86-25.13,0-45.49,20.37-45.49,45.49s20.37,45.49,45.49,45.49c3.03,0,5.99-.3,8.86-.86-20.89-4.12-36.64-22.54-36.64-44.63Z"/><g><polygon class="b" points="247.81 55.9 269.31 55.9 258.59 37.85 247.81 55.9"/><path class="b" d="M484.12,5.66H109.85c-24.74,0-44.8,20.06-44.8,44.8s20.06,44.8,44.8,44.8H484.12c24.74,0,44.8-20.06,44.8-44.8s-20.06-44.8-44.8-44.8Zm-199.78,75.62l-6.17-10.46h-39.2l-6.17,10.46h-34.37l.03-.05h-22.75l-14.74-14.92h-27.26v14.92h-30.52V20.11h75.43c16.14-.14,29.82,10.46,29.59,23.1,0,4.59-1.57,8.78-4.72,12.51-3.09,3.68-7.22,6.5-12.35,8.37l11.29,11.35,37.98-55.28h36.29l42,61.12h-34.37Zm205.19-45.48h-61.1v7.82h61.1v14.14h-61.1v7.82h61.1v15.69h-91.63V33.08l-31.56,48.2h-36.29l-40.68-61.12h34.37l24.49,42.43,23.88-42.43h117.42v15.64Z"/><path class="b" d="M170.92,37.98h-37.22v10.41h37.22c1.86,0,3.44-.5,4.72-1.5,1.34-1.05,1.98-2.27,1.98-3.68,0-2.91-2.97-5.23-6.7-5.23Z"/></g></svg>