<svg width="456" height="157" viewBox="0 0 456 157" fill="none" xmlns="http://www.w3.org/2000/svg">
<path d="M424.745 107.494H382.08V102.68C382.08 101.96 382.329 101.352 382.827 100.854C383.325 100.3 383.934 99.9682 384.653 99.8575C387.254 99.5808 389.025 97.7823 389.966 94.462C390.906 91.0864 391.377 85.8293 391.377 78.6907V68.6469C391.377 62.6704 390.63 57.939 389.135 54.4527C386.867 51.2985 383.934 49.7214 380.337 49.7214C377.847 49.7214 375.55 50.6344 373.447 52.4606C371.4 54.2867 369.989 55.9745 369.214 57.524C369.38 59.0181 369.463 66.0737 369.463 78.6907C369.463 85.8293 369.961 91.0864 370.957 94.462C371.953 97.7823 373.779 99.5808 376.435 99.8575C377.155 99.9682 377.736 100.3 378.179 100.854C378.677 101.352 378.926 101.96 378.926 102.68V107.494H336.26V102.68C336.26 101.96 336.481 101.352 336.924 100.854C337.422 100.3 338.031 99.9682 338.75 99.8575C341.407 99.5808 343.177 97.7823 344.063 94.462C345.004 91.0864 345.474 85.8293 345.474 78.6907C345.474 74.3191 345.502 70.9711 345.557 68.6469C345.557 62.6704 344.81 57.939 343.316 54.4527C341.49 51.2985 338.474 49.7214 334.268 49.7214C331.722 49.7214 329.509 50.6068 327.627 52.3776C325.746 54.1484 324.335 55.8639 323.394 57.524V81.513C323.394 93.4106 325.774 99.5255 330.533 99.8575C331.252 99.9682 331.861 100.3 332.359 100.854C332.857 101.352 333.106 101.96 333.106 102.68V107.494H290.44V102.68C290.44 101.96 290.662 101.352 291.104 100.854C291.602 100.3 292.239 99.9682 293.014 99.8575C297.607 99.8575 299.903 92.8019 299.903 78.6907V61.0933C299.792 56.7769 299.184 53.678 298.077 51.7965C296.97 49.915 295.199 48.8636 292.765 48.6423C292.045 48.4763 291.436 48.1166 290.938 47.5632C290.44 47.0098 290.191 46.3457 290.191 45.571V42.7488C297.496 42.7488 303.362 41.9187 307.789 40.2586C312.216 38.5984 315.674 36.966 318.165 35.3612C320.378 33.9777 322.094 33.286 323.311 33.286V45.405C325.58 42.7488 328.707 40.1756 332.691 37.6854C336.675 35.1952 341.351 33.9501 346.719 33.9501C351.865 33.9501 356.126 35.1952 359.502 37.6854C362.933 40.1202 365.479 43.5512 367.139 47.9782C368.245 46.3734 369.989 44.4919 372.368 42.3338C374.748 40.1756 377.625 38.2387 381.001 36.5233C384.432 34.8078 388.305 33.9501 392.622 33.9501C400.092 33.9501 405.737 36.5233 409.555 41.6697C413.373 46.7608 415.283 53.6227 415.283 62.2554V78.6907C415.283 85.8293 415.781 91.0864 416.777 94.462C417.828 97.7823 419.654 99.5808 422.255 99.8575C422.975 99.9682 423.556 100.3 423.998 100.854C424.496 101.352 424.745 101.96 424.745 102.68V107.494Z" fill="black"/>
<path d="M255.329 109.321C247.637 109.321 241.135 107.578 235.823 104.092C230.51 100.55 226.443 95.9017 223.621 90.1465C220.854 84.3914 219.471 78.1659 219.471 71.47C219.471 63.114 221.158 56.1691 224.534 50.6353C227.965 45.0461 232.42 40.8958 237.898 38.1842C243.432 35.4174 249.381 34.0339 255.744 34.0339C260.227 34.0339 264.765 34.8916 269.358 36.6071C274.006 38.3226 277.99 41.2278 281.311 45.3228C283.856 48.6984 285.627 52.5998 286.623 57.0268C287.674 61.3985 288.2 66.5726 288.2 72.5491H243.127C243.792 79.0236 245.95 84.2254 249.602 88.1544C253.254 92.0833 258.345 94.0478 264.875 94.0478C272.678 94.0478 279.789 90.9766 286.208 84.8341L288.781 86.9923C287.121 90.3679 284.908 93.7712 282.141 97.2021C279.429 100.578 275.915 103.455 271.599 105.835C267.338 108.159 261.915 109.321 255.329 109.321ZM254.167 65.2445C258.318 65.2445 261.306 64.1931 263.132 62.0902C265.014 59.932 265.954 57.3588 265.954 54.3706C265.954 50.8843 264.875 47.8684 262.717 45.3228C260.559 42.722 258.373 41.4215 256.16 41.4215C252.12 41.4215 248.993 43.7734 246.78 48.4771C244.622 53.1808 243.376 58.7699 243.044 65.2445H254.167Z" fill="black"/>
<path d="M184.607 109.321C176.915 109.321 170.412 107.578 165.1 104.092C159.788 100.55 155.72 95.9017 152.898 90.1465C150.131 84.3914 148.748 78.1659 148.748 71.47C148.748 63.114 150.435 56.1691 153.811 50.6353C157.242 45.0461 161.697 40.8958 167.175 38.1842C172.709 35.4174 178.658 34.0339 185.022 34.0339C189.504 34.0339 194.042 34.8916 198.635 36.6071C203.283 38.3226 207.267 41.2278 210.588 45.3228C213.133 48.6984 214.904 52.5998 215.9 57.0268C216.952 61.3985 217.477 66.5726 217.477 72.5491H172.405C173.069 79.0236 175.227 84.2254 178.879 88.1544C182.531 92.0833 187.623 94.0478 194.152 94.0478C201.955 94.0478 209.066 90.9766 215.485 84.8341L218.058 86.9923C216.398 90.3679 214.185 93.7712 211.418 97.2021C208.706 100.578 205.192 103.455 200.876 105.835C196.615 108.159 191.192 109.321 184.607 109.321ZM183.444 65.2445C187.595 65.2445 190.583 64.1931 192.409 62.0902C194.291 59.932 195.231 57.3588 195.231 54.3706C195.231 50.8843 194.152 47.8684 191.994 45.3228C189.836 42.722 187.65 41.4215 185.437 41.4215C181.397 41.4215 178.27 43.7734 176.057 48.4771C173.899 53.1808 172.654 58.7699 172.322 65.2445H183.444Z" fill="black"/>
<path d="M147.336 107.494H104.67V102.679C104.67 101.96 104.892 101.351 105.334 100.853C105.832 100.3 106.469 99.9678 107.243 99.8571C110.951 99.5251 113.165 95.8728 113.884 88.9002C113.884 77.722 113.912 70.8324 113.967 68.2315C113.967 62.421 113.22 57.828 111.726 54.4524C109.734 51.2981 106.801 49.721 102.927 49.721C100.382 49.721 98.0851 50.6341 96.0376 52.4602C94.0454 54.2864 92.662 55.9742 91.8872 57.5236V82.0106C91.9426 93.5763 94.2668 99.5251 98.8598 99.8571C99.6345 99.9678 100.271 100.3 100.769 100.853C101.267 101.351 101.516 101.96 101.516 102.679V107.494H58.7675V102.679C58.7675 101.96 58.9889 101.351 59.4316 100.853C59.9296 100.3 60.566 99.9678 61.3407 99.8571C65.7677 99.5251 68.1196 94.268 68.3963 84.0858V27.8902C68.2856 23.5738 67.6492 20.4749 66.4871 18.5934C65.3804 16.7119 63.6372 15.6329 61.2577 15.3562C60.483 15.2455 59.8466 14.9135 59.3485 14.3601C58.8505 13.7514 58.6015 13.0596 58.6015 12.2849V9.54569C65.9061 9.54569 71.7719 8.71562 76.1989 7.05548C80.626 5.39534 84.1123 3.76288 86.6578 2.15808C88.816 0.719293 90.5591 -9.91821e-05 91.8872 -9.91821e-05V45.4046C94.0454 42.7484 97.1167 40.1752 101.101 37.685C105.085 35.1948 109.761 33.9497 115.129 33.9497C122.655 33.9497 128.327 36.5229 132.146 41.6693C135.964 46.7604 137.873 53.6223 137.873 62.255V85.829C138.316 94.849 140.64 99.5251 144.846 99.8571C145.565 99.9678 146.146 100.3 146.589 100.853C147.087 101.351 147.336 101.96 147.336 102.679V107.494Z" fill="black"/>
<path d="M26.562 109.404H26.064C21.969 109.349 18.621 109.017 16.0202 108.408C13.4193 107.855 10.8737 106.969 8.38354 105.752C4.84191 104.202 2.35171 102.625 0.912923 101.02L0.0828542 84.9171H4.64823C9.84999 96.2614 16.9886 101.933 26.064 101.933C29.7163 101.933 32.6769 101.435 34.9457 100.439C37.2146 99.3879 38.349 97.8108 38.349 95.708C38.349 93.9925 37.0486 92.194 34.4477 90.3125C31.9021 88.431 28.0285 85.9408 22.8267 82.8419L13.613 77.1975C8.24519 73.6558 4.62056 69.9482 2.73907 66.0745C0.912922 62.2009 -0.000152588 58.9083 -0.000152588 56.1967C-0.000152588 49.9435 2.13036 44.8248 6.39137 40.8405C11.4271 36.3028 18.2614 34.0339 26.8941 34.0339H28.5542C32.5939 34.0339 35.8865 34.3383 38.432 34.947C41.0329 35.5004 43.5784 36.3581 46.0686 37.5202C49.5549 39.0143 52.0451 40.6191 53.5393 42.3346L54.3693 58.3549H49.8039C47.5351 53.2085 45.1002 49.4178 42.4993 46.983C39.9538 44.5481 37.4636 42.9986 35.0287 42.3346C32.5939 41.6705 30.6017 41.3385 29.0522 41.3385H28.8032C25.981 41.3385 23.5738 41.8919 21.5816 42.9986C19.5895 44.0501 18.5934 45.7379 18.5934 48.0621C18.5934 50.6076 20.2812 53.0701 23.6568 55.4497C27.0324 57.8292 31.5148 60.5408 37.1039 63.5843L42.1673 66.5726C47.1477 69.3395 50.9107 72.3554 53.4562 75.6203C56.0018 78.8853 57.2746 82.8696 57.2746 87.5733C57.2746 94.6566 54.3416 100.052 48.4758 103.76C42.61 107.412 35.3608 109.266 26.728 109.321L26.562 109.404Z" fill="black"/>
<path d="M295.621 136.798H303.826V139.524H298.511V144.839H302.736V147.565H298.511V153.153H303.826V155.878H295.621V136.798Z" fill="black"/>
<path d="M268.947 142.741V141.133C268.947 140.534 268.793 140.07 268.484 139.743C268.175 139.416 267.748 139.252 267.203 139.252C266.658 139.252 266.231 139.416 265.922 139.743C265.613 140.07 265.458 140.534 265.458 141.133V151.546C265.458 152.145 265.613 152.609 265.922 152.936C266.231 153.263 266.658 153.426 267.203 153.426C267.748 153.426 268.175 153.263 268.484 152.936C268.793 152.609 268.947 152.145 268.947 151.546V148.166H267.203V145.44H271.837V151.546C271.837 152.927 271.41 154.044 270.555 154.898C269.701 155.734 268.584 156.152 267.203 156.152C265.822 156.152 264.704 155.734 263.85 154.898C262.996 154.044 262.569 152.927 262.569 151.546V141.133C262.569 139.752 262.996 138.644 263.85 137.808C264.704 136.954 265.822 136.527 267.203 136.527C268.584 136.527 269.701 136.954 270.555 137.808C271.41 138.644 271.837 139.752 271.837 141.133V142.741H268.947Z" fill="black"/>
<path d="M228.972 136.798H232.161L235.841 149.609V136.798H238.675V155.878H235.623L231.807 143.667V155.878H228.972V136.798Z" fill="black"/>
<path d="M200.497 156.151C199.171 156.151 198.09 155.742 197.254 154.924C196.418 154.088 196 153.007 196 151.681V136.798H198.889V151.681C198.889 152.226 199.034 152.653 199.325 152.962C199.634 153.271 200.025 153.425 200.497 153.425C200.97 153.425 201.351 153.271 201.642 152.962C201.951 152.653 202.106 152.226 202.106 151.681V136.798H204.94V151.681C204.94 153.007 204.531 154.088 203.714 154.924C202.896 155.742 201.824 156.151 200.497 156.151Z" fill="black"/>
<path d="M167.557 156.152C166.176 156.152 165.058 155.734 164.204 154.898C163.35 154.044 162.923 152.927 162.923 151.546V141.133C162.923 139.752 163.35 138.644 164.204 137.808C165.058 136.954 166.176 136.527 167.557 136.527C168.938 136.527 170.056 136.954 170.91 137.808C171.764 138.644 172.191 139.752 172.191 141.133V151.546C172.191 152.927 171.764 154.044 170.91 154.898C170.056 155.734 168.938 156.152 167.557 156.152ZM167.557 153.426C168.102 153.426 168.529 153.263 168.838 152.936C169.147 152.609 169.302 152.145 169.302 151.546V141.133C169.302 140.534 169.147 140.07 168.838 139.743C168.529 139.416 168.102 139.252 167.557 139.252C167.012 139.252 166.585 139.416 166.276 139.743C165.967 140.07 165.813 140.534 165.813 141.133V151.546C165.813 152.145 165.967 152.609 166.276 152.936C166.585 153.263 167.012 153.426 167.557 153.426Z" fill="black"/>
<path d="M131.906 136.798H134.795V153.153H139.947V155.878H131.906V136.798Z" fill="black"/>
<path d="M436.975 100.603C436.975 97.7209 437.865 95.4234 439.643 93.7108C441.422 91.9982 443.707 91.1419 446.496 91.1419C449.286 91.1419 451.51 92.1026 453.168 94.0241C454.866 95.9038 455.715 99.0158 455.715 103.36C455.715 108.122 454.097 112.696 450.863 117.082C448.073 120.8 445.688 122.658 443.707 122.658C443.383 122.658 443.08 122.617 442.797 122.533C445.425 115.933 446.739 111.965 446.739 110.628C446.739 110.294 446.658 110.127 446.496 110.127C443.707 110.127 441.422 109.271 439.643 107.558C437.865 105.804 436.975 103.485 436.975 100.603Z" fill="black"/>
</svg>
